<?xml version="1.0" standalone="no"?>
<!DOCTYPE svg PUBLIC "-//W3C//DTD SVG 20010904//EN"
 "http://www.w3.org/TR/2001/REC-SVG-20010904/DTD/svg10.dtd">
<svg version="1.0" xmlns="http://www.w3.org/2000/svg"
 width="500.000000pt" height="500.000000pt" viewBox="0 0 500.000000 500.000000"
 preserveAspectRatio="xMidYMid meet">
<metadata>
Created by potrace 1.14, written by Peter Selinger 2001-2017
</metadata>
<g transform="translate(0.000000,500.000000) scale(0.100000,-0.100000)"
fill="#000000" stroke="none">
<path d="M459 4633 c-1 -10 -1 -4284 0 -4301 1 -10 130 -12 629 -10 l627 3 2
1155 c1 635 2 1166 2 1179 1 25 1 26 309 -429 69 -102 130 -186 134 -188 4 -2
8 -8 8 -12 0 -5 21 -39 47 -77 26 -37 80 -117 121 -178 213 -313 249 -366 299
-437 29 -42 53 -79 53 -83 0 -7 148 -226 546 -808 l87 -127 632 0 633 0 0
2160 0 2160 -632 0 -633 0 0 -1182 c0 -698 -3 -1183 -9 -1182 -5 1 -16 13 -24
27 -8 14 -59 90 -113 169 -54 79 -146 213 -203 298 -58 85 -168 247 -245 360
-274 402 -374 551 -399 593 -14 24 -51 81 -83 128 -50 72 -303 443 -482 707
l-56 82 -624 0 c-344 0 -625 -3 -626 -7z"/>
</g>
</svg>
